<svg xmlns="http://www.w3.org/2000/svg" width="45" height="45" viewBox="0 0 45 45">
  <g id="Group_5" data-name="Group 5" transform="translate(-521 -403)">
    <g id="iconfinder_Delivery_service_3615755" transform="translate(523 409)">
      <g id="Group_4" data-name="Group 4" transform="translate(0 0)">
        <g id="Group_1" data-name="Group 1" transform="translate(13.594)">
          <path id="Path_3" data-name="Path 3" d="M199.009,96.473a2.376,2.376,0,1,0-2.376,2.376A2.379,2.379,0,0,0,199.009,96.473Zm-3.869,0a1.493,1.493,0,1,1,1.492,1.493A1.494,1.494,0,0,1,195.14,96.473Z" transform="translate(-192.312 -92.201)" fill="#f30101"/>
          <path id="Path_4" data-name="Path 4" d="M176.879,83.768c.408-.461,3.991-4.572,3.991-6.817a4.321,4.321,0,0,0-8.642,0c0,2.245,3.582,6.356,3.99,6.817l.331.373Zm-3.768-6.817a3.438,3.438,0,0,1,6.876,0c0,1.469-2.24,4.428-3.438,5.848C175.351,81.379,173.111,78.421,173.111,76.951Z" transform="translate(-172.228 -72.63)" fill="#f30101"/>
        </g>
        <g id="Group_2" data-name="Group 2" transform="translate(0 24.91)">
          <rect id="Rectangle_1" data-name="Rectangle 1" width="4.256" height="0.883" transform="translate(2.42)" fill="#f30101"/>
          <rect id="Rectangle_2" data-name="Rectangle 2" width="1.391" height="0.883" fill="#f30101"/>
          <rect id="Rectangle_3" data-name="Rectangle 3" width="2.569" height="0.883" transform="translate(4.107 2.412)" fill="#f30101"/>
        </g>
        <g id="Group_3" data-name="Group 3" transform="translate(2.166 8.146)">
          <rect id="Rectangle_4" data-name="Rectangle 4" width="2.263" height="0.883" transform="translate(10.998 10.178)" fill="#f30101"/>
          <path id="Path_5" data-name="Path 5" d="M42.816,166.1v8.407h3.469l4.663,3.508c-.014.123-.025.247-.034.373a5.961,5.961,0,0,0-2.156,4.5v1.853h1.6a4.818,4.818,0,0,0,2.021,3.493H46.2v.883H62.622v-.883H57.931a4.854,4.854,0,0,0,1.381-1.5h2.966l1.415-.73a2.736,2.736,0,0,0,1.311.333h6.6l.132-.161c.008-.009.156-.187.431-.469a4.848,4.848,0,0,0,1.959,2.53H66.684v.883H82.633v-.883H79.37a4.809,4.809,0,0,0,1.187-6.977,11.181,11.181,0,0,1,1.422-.092.52.52,0,0,0,.521-.33c.147-.4-.2-.7-.732-1.154-.119-.1-.232-.2-.3-.265a7.1,7.1,0,0,0-3.853-2L74,168.552h1.091v-.414h.091a1.41,1.41,0,0,0,1.409-1.409v-.03a1.41,1.41,0,0,0-1.409-1.409h-.091v-.414H72.037a1.842,1.842,0,0,0-1.84,1.84v.855c0,.033,0,.066,0,.1h-.538l-1.878-1.878H65.58v.883h1.84l1.878,1.878H71.07l-.98,2.97,1.323,7.84a7.179,7.179,0,0,0-1.556,2.242H64.845a8.817,8.817,0,0,1-.575-1.52,9.292,9.292,0,0,1,.27-5.607,1.063,1.063,0,0,0,.8-1.029,2.625,2.625,0,0,0-2.622-2.622H53.63a1.838,1.838,0,0,0-1.57,2.8h-.837V166.1Zm.883,7.524v-6.641H50.34v6.641H43.7Zm5.943,9.262c0-3.045,2.953-5.522,6.583-5.522h1.668c2.4,0,4.356,1.629,4.356,3.632v2.861h-2.3a4.817,4.817,0,0,0-9.594,0h-.719v-.97Zm1.607.97a3.933,3.933,0,0,1,7.817,0Zm5.211.883a1.375,1.375,0,0,1-2.6,0Zm-1.3,3.493a3.939,3.939,0,0,1-3.908-3.493h1.693a2.26,2.26,0,0,0,4.432,0h1.692a3.9,3.9,0,0,1-.293,1.108H57.208v.883h1.038A3.928,3.928,0,0,1,55.157,188.232Zm6.907-2.385H59.717a4.779,4.779,0,0,0,.236-1.108h2.555a2.777,2.777,0,0,0,.43.657Zm18.614-1.65a3.934,3.934,0,0,1-7.785.808,17.085,17.085,0,0,1,1.648-1.312,2.259,2.259,0,1,0,2.96-1.624,12.61,12.61,0,0,1,2.04-.637A3.948,3.948,0,0,1,80.679,184.2Zm-4.924-.955.6,1.157.785-.405-.6-1.157a1.378,1.378,0,1,1-.785.405Zm-.573-17.07a.526.526,0,0,1,.526.526v.03a.526.526,0,0,1-.526.526h-.091v-1.082Zm-4.1,1.4v-.855a.958.958,0,0,1,.957-.957h2.171v1.909h-3.03A.1.1,0,0,1,71.08,167.571ZM71,171.591l1-3.039h1.047l3.578,8.769c-.072,0-.143-.005-.215-.005A7.123,7.123,0,0,0,72.2,178.7ZM76.41,178.2a6.23,6.23,0,0,1,4.436,1.84c.078.079.185.172.3.271a14.332,14.332,0,0,0-7.089,2.635,16.759,16.759,0,0,0-2.863,2.505H65a1.876,1.876,0,0,1-1.819-1.431H66.5l0,0h3.645l.052-.382A6.3,6.3,0,0,1,76.41,178.2Zm-6.873,4.287c-.061.211-.114.427-.156.646H65.792q-.241-.315-.452-.646h4.2Zm-4.83.646H63.132V181c0-2.489-2.35-4.515-5.239-4.515H56.225a8.284,8.284,0,0,0-4.335,1.2,8.3,8.3,0,0,1,1.3-3.168h10.4a10.128,10.128,0,0,0-.175,5.809A9.713,9.713,0,0,0,64.707,183.132ZM53.63,171.707H62.72a1.741,1.741,0,0,1,1.739,1.739.179.179,0,0,1-.179.179H53.63a.959.959,0,0,1,0-1.918Zm-1.484,2.8a9.256,9.256,0,0,0-1.027,2.532l-3.365-2.532h4.392Z" transform="translate(-42.816 -164.876)" fill="#f30101"/>
          <rect id="Rectangle_5" data-name="Rectangle 5" width="2.533" height="0.883" transform="translate(4.204 3.161)" fill="#f30101"/>
          <rect id="Rectangle_6" data-name="Rectangle 6" width="1.53" height="0.883" transform="translate(21.043 23.357)" fill="#f30101"/>
          <rect id="Rectangle_7" data-name="Rectangle 7" width="1.398" height="0.883" transform="translate(0.967 23.357)" fill="#f30101"/>
        </g>
      </g>
    </g>
    <g id="Rectangle_8" data-name="Rectangle 8" transform="translate(521 403)" fill="none" stroke="#707070" stroke-width="1" opacity="0.002">
      <rect width="45" height="45" stroke="none"/>
      <rect x="0.5" y="0.5" width="44" height="44" fill="none"/>
    </g>
  </g>
</svg>
