<svg id="Group_360" data-name="Group 360" xmlns="http://www.w3.org/2000/svg" width="31.462" height="31.462" viewBox="0 0 31.462 31.462">
  <path id="Path_363" data-name="Path 363" d="M192.88,134.98v-1.644c0-.742.174-1.1,1.293-1.1h1.368V129.5h-2.306c-2.87,0-3.784,1.312-3.784,3.637v1.842H187.5v2.8h1.951v8.28h3.429v-8.28h2.378l.318-2.8Z" transform="translate(-175.902 -122.271)" fill="#3b5998"/>
  <path id="Path_360" data-name="Path 360" d="M31.231,16.5A15.731,15.731,0,1,0,46.962,32.231,15.731,15.731,0,0,0,31.231,16.5ZM41.656,42.656a14.744,14.744,0,1,1,4.318-10.425A14.647,14.647,0,0,1,41.656,42.656Z" transform="translate(-15.5 -16.5)" fill="#3b5998"/>
</svg>
