<svg xmlns="http://www.w3.org/2000/svg" width="45" height="45" viewBox="0 0 45 45">
  <g id="Group_6" data-name="Group 6" transform="translate(-590 -403)">
    <path id="iconfinder_food_delivery_22_7429347" d="M20.1,19.654v.5a.5.5,0,0,1-1.008,0v-.5a.5.5,0,1,1,1.008,0Zm7.559,4.536a2.009,2.009,0,0,1-1.008,1.735v.784a2.018,2.018,0,0,1-2.016,2.016H14.561a2.018,2.018,0,0,1-2.016-2.016v-.784a2,2,0,0,1,.012-3.477,7.047,7.047,0,0,1,14.088,0,2.009,2.009,0,0,1,1.02,1.742ZM13.578,22.174H25.622a6.042,6.042,0,0,0-12.044,0Zm12.07,4.032h-12.1v.5a1.009,1.009,0,0,0,1.008,1.008H24.64a1.009,1.009,0,0,0,1.008-1.008Zm1.008-2.016a1.009,1.009,0,0,0-1.008-1.008h-12.1a1.008,1.008,0,0,0,0,2.016h12.1a1.009,1.009,0,0,0,1.008-1.008ZM17.08,18.647a.5.5,0,0,0-.5.5v.5a.5.5,0,0,0,1.008,0v-.5a.5.5,0,0,0-.5-.5Zm5.04,0a.5.5,0,0,0-.5.5v.5a.5.5,0,0,0,1.008,0v-.5a.5.5,0,0,0-.5-.5ZM32.2,29.685c0,2.568-1.514,2.568-2.518,2.568H9.52c-1,0-2.52,0-2.52-2.52L8.859,10.36a2.5,2.5,0,0,1,2.51-2.3h2.688V5.544a5.544,5.544,0,1,1,11.087,0v2.52h2.688a2.505,2.505,0,0,1,2.51,2.3ZM15.065,8.063h9.071V5.544a4.536,4.536,0,1,0-9.071,0Zm16.128,21.67L29.339,10.457a1.5,1.5,0,0,0-1.507-1.385H25.144v1.512a.5.5,0,1,1-1.008,0V9.071H15.065v1.512a.5.5,0,1,1-1.008,0V9.071H11.368a1.5,1.5,0,0,0-1.506,1.381L8.006,29.782c0,1.464.508,1.464,1.515,1.464H29.68C30.687,31.246,31.193,31.246,31.193,29.734Z" transform="translate(593 409)" fill="#f30101"/>
    <g id="Rectangle_9" data-name="Rectangle 9" transform="translate(590 403)" fill="none" stroke="#707070" stroke-width="1" opacity="0.002">
      <rect width="45" height="45" stroke="none"/>
      <rect x="0.5" y="0.5" width="44" height="44" fill="none"/>
    </g>
  </g>
</svg>
