<svg id="Group_358" data-name="Group 358" xmlns="http://www.w3.org/2000/svg" width="31.462" height="31.462" viewBox="0 0 31.462 31.462">
  <path id="Path_364" data-name="Path 364" d="M142.956,151.5a7.885,7.885,0,0,1-2.231.6,3.813,3.813,0,0,0,1.708-2.1,7.9,7.9,0,0,1-2.467.919,3.927,3.927,0,0,0-2.835-1.2,3.837,3.837,0,0,0-3.884,3.787,3.7,3.7,0,0,0,.1.863,11.127,11.127,0,0,1-8.007-3.956,3.694,3.694,0,0,0-.526,1.9,3.761,3.761,0,0,0,1.728,3.152,3.95,3.95,0,0,1-1.76-.474c0,.016,0,.032,0,.048a3.815,3.815,0,0,0,3.116,3.713,4,4,0,0,1-1.024.133,3.951,3.951,0,0,1-.731-.068,3.878,3.878,0,0,0,3.629,2.63,7.922,7.922,0,0,1-4.824,1.621,8.057,8.057,0,0,1-.927-.053,11.2,11.2,0,0,0,5.955,1.7,10.832,10.832,0,0,0,11.053-10.774q0-.246-.011-.49A7.762,7.762,0,0,0,142.956,151.5Z" transform="translate(-117.824 -141.22)" fill="#1da1f2"/>
  <path id="Path_361" data-name="Path 361" d="M31.231,16.5A15.731,15.731,0,1,0,46.962,32.231,15.731,15.731,0,0,0,31.231,16.5ZM41.656,42.656a14.744,14.744,0,1,1,4.318-10.425A14.647,14.647,0,0,1,41.656,42.656Z" transform="translate(-15.5 -16.5)" fill="#1da1f2"/>
</svg>
